# xmcd
#
# Track frame offsets: 
#        150
#        16778
#        35020
#        47346
#        61847
#        76240
#        90503
#        105312
#        123392
#        142761
#        163864
#        180316
#        192164
#
# Disc length: 2755 seconds
#
# Revision: 0
# Processed by: cddbd v1.5.2PL0 Copyright (c) Steve Scherf et al.
# Submitted via: ExactAudioCopy v0.99pb4
#
DISCID=900ac10d
DTITLE=Carlinhos Marques - rezar, cartar, cartar e rezar.
DYEAR=1900
DGENRE=Gospel
TTITLE0=Maria da Assunção
TTITLE1=Dai-me um novo coração
TTITLE2=Coração de águia
TTITLE3=Hino a padre Pio 
TTITLE4=Olhar de Maria
TTITLE5=Meu canto voa
TTITLE6=jesus é um Porto Seguro 
TTITLE7=Valente
TTITLE8=Partilha do Eu
TTITLE9=Jesus amor da minha vida
TTITLE10=Vida em esperaça
TTITLE11=Cristo é presente e realidade
TTITLE12=Hino a Padre Pio - Italiano 
EXTD=
EXTT0=
EXTT1=
EXTT2=
EXTT3=
EXTT4=
EXTT5=
EXTT6=
EXTT7=
EXTT8=
EXTT9=
EXTT10=
EXTT11=
EXTT12=
PLAYORDER=
